HIERARCHY
ROOT pelvis
{
  OFFSET 0 100 0
  CHANNELS 6 Xposition Yposition Zposition Zrotation Xrotation Yrotation
  JOINT pelvis_right_femur
  {
    OFFSET -10.78128 -3.44521 -0.5502486
    CHANNELS 3 Zrotation Xrotation Yrotation
    JOINT right_femur_tibia
    {
      OFFSET -0.8047443 -44.0398 -0.1307829
      CHANNELS 3 Zrotation Xrotation Yrotation
      JOINT right_tibia_foot
      {
        OFFSET 3.006224 -47.83518 -5
        CHANNELS 3 Zrotation Xrotation Yrotation
        End Site
        {
          OFFSET 0 -5 15
        }
      }
    }
  }
  JOINT pelvis_left_femur
  {
    OFFSET 10.78128 -3.44521 -0.5502486
    CHANNELS 3 Zrotation Xrotation Yrotation
    JOINT left_femur_tibia
    {
      OFFSET 0.8047443 -44.0398 -0.1307829
      CHANNELS 3 Zrotation Xrotation Yrotation
      JOINT left_tibia_foot
      {
        OFFSET -4.370144 -48.10324 -4.275266
        CHANNELS 3 Zrotation Xrotation Yrotation
        End Site
        {
          OFFSET 0 -5 15
        }
      }
    }
  }
  JOINT pelvis_spine1
  {
    OFFSET 0 6.468898 -3.129235
    CHANNELS 3 Zrotation Xrotation Yrotation
    JOINT spine1
    {
      OFFSET 0 23.15396 4.99043
      CHANNELS 3 Zrotation Xrotation Yrotation
      JOINT spine2
      {
        OFFSET 0 20.79997 -5.064912
        CHANNELS 3 Zrotation Xrotation Yrotation
        JOINT neck
        {
          OFFSET 0 14.38658 9.616178
          CHANNELS 3 Zrotation Xrotation Yrotation
          End Site
          {
            OFFSET 0 20 0
          }
        }
      }
      JOINT right_manubrium
      {
        OFFSET -5.722621 16.35077 3.967754
        CHANNELS 3 Zrotation Xrotation Yrotation
        JOINT right_clavicle
        {
          OFFSET -13.16364 1.694482 -4.693211
          CHANNELS 3 Zrotation Xrotation Yrotation
          JOINT right_humerus
          {
            OFFSET -28.5034 -0.3100689 -2.792744
            CHANNELS 3 Zrotation Xrotation Yrotation
            JOINT right_radius
            {
              OFFSET -25.15693 0.02248979 -1.271978
              CHANNELS 3 Zrotation Xrotation Yrotation
              End Site
              {
                OFFSET -15 0 0
              }
            }
          }
        }
      }
      JOINT left_manubrium
      {
        OFFSET 5.722621 16.35077 3.967754
        CHANNELS 3 Zrotation Xrotation Yrotation
        JOINT left_clavicle
        {
          OFFSET 13.16364 1.694482 -4.693211
          CHANNELS 3 Zrotation Xrotation Yrotation
          JOINT left_humerus
          {
            OFFSET 29.39168 -1.063119 -2.237045
            CHANNELS 3 Zrotation Xrotation Yrotation
            JOINT left_radius
            {
              OFFSET 24.59957 -0.9528479 0.9047498
              CHANNELS 3 Zrotation Xrotation Yrotation
              End Site
              {
                OFFSET 15 -0 -0
              }
            }
          }
        }
      }
    }
  }
}
MOTION
Frames: 7
Frame Time: 0.0416666666667
0 103.5113 0 4.749773 -2.557249 0.3453149 -4.293877 -7.137077 9.506202 -0 32.24337 -0 -2.655469 -17.27273 -1.894016 -9.727947 10.78328 -22.95184 -0 3.894896 -0 10.24278 -14.62236 30.65721 -7.281409 -3.582346 6.886874 0.8697399 10.02332 -6.586207 -1.847127 15.65933 13.17506 14.29598 -23.47229 3.439294 6.542501 -17.67731 11.00114 82.47127 32.2014 -16.02902 -0 0 15.57621 -16.03636 3.908836 15.8682 6.235129 -21.23946 -4.394978 -98.52485 33.5922 27.75818 0 0 -22.84395 -0.1748359 4.582471 23.85724
0.3342646 103.4564 0.900063 4.148757 -2.708545 -0.0009756087 -3.136796 -10.47763 9.569332 -0 37.1587 -0 -2.85559 -16.33413 -3.128839 -9.32299 11.64063 -22.30676 -0 3.672181 -0 10.01053 -15.41088 30.26055 -7.188109 -2.889893 6.396492 1.051455 10.17312 -6.948605 -1.494388 15.9169 13.02393 13.95147 -24.54486 4.544016 6.424008 -17.6707 10.71097 82.59396 31.92493 -16.21524 -0 0 15.43189 -16.09695 3.952908 15.82276 5.984243 -21.16665 -4.5282 -98.8923 33.81021 28.22247 0 0 -21.60887 -0.6315785 4.310457 24.06367
0.5997951 103.4742 2.103117 3.323113 -2.665675 -0.3773757 -1.492058 -14.06862 9.234685 -0 40.04438 -0 -3.107209 -15.52709 -3.835195 -8.800267 12.54372 -21.54187 -0 3.355729 -0 9.682243 -16.21695 29.88286 -7.020935 -2.355621 5.927192 1.454889 10.20341 -7.418455 -1.152198 16.15936 12.78466 13.64172 -25.3734 5.370243 6.402099 -17.55725 10.51797 82.75128 31.68322 -16.73751 -0 0 14.82659 -16.01575 4.036064 15.58589 5.777358 -21.05431 -4.741731 -99.27498 33.96327 28.69919 0 0 -20.36074 -1.049988 4.056254 24.21764
0.8329242 103.5904 3.481734 2.75081 -2.562064 -0.8608004 -0.1477387 -17.72013 8.58564 -0 40.23928 -0 -3.30013 -14.32691 -3.9618 -8.1903 13.50815 -20.75808 -0 2.974965 -0 9.157992 -17.05237 29.24296 -6.903338 -2.07124 5.757796 1.806087 10.16238 -7.693188 -0.8512176 16.55423 12.5165 13.38509 -25.94981 5.971683 6.425697 -17.31094 10.3954 82.99791 31.46745 -17.55871 -0 0 13.84227 -15.81636 4.151342 15.20161 5.537522 -21.05874 -4.787579 -99.53781 34.00534 29.01235 0 0 -19.21545 -1.315177 3.868897 24.31158
1.0624 103.5522 5.128547 2.227341 -2.108995 -1.413209 1.174618 -21.39703 7.95415 -0 37.88671 -0 -3.465697 -12.65608 -3.695398 -7.795885 14.36542 -19.81619 -0 2.552498 -0 8.594087 -17.9914 28.51443 -6.973418 -1.561716 5.496068 2.189422 10.16757 -8.203582 -0.5983008 16.50639 12.11468 13.0877 -26.6705 6.276116 6.488317 -17.12351 10.34241 83.25148 31.27976 -18.44481 -0 0 12.68584 -15.52368 4.283953 14.74217 5.510537 -21.20944 -4.818686 -99.68649 34.01007 29.12846 0 0 -18.25849 -1.501773 3.71431 24.31399
1.380512 103.4236 7.177304 1.830398 -1.54689 -1.657787 2.19579 -24.74357 7.407299 -0 33.9216 -0 -3.702395 -10.69683 -3.249826 -7.580147 15.23197 -18.82407 -0 2.335593 -0 8.025877 -19.06849 27.64087 -6.937304 -1.396433 5.474931 2.770399 9.870104 -8.532146 -0.09493642 16.52675 11.69898 12.95664 -27.21519 6.703596 6.391194 -16.70598 10.11389 83.53724 31.09702 -19.6417 -0 0 11.29536 -15.18084 4.43743 14.22213 5.472881 -21.21565 -4.72236 -99.6795 33.88679 29.02249 0 0 -17.86443 -1.594186 3.632453 24.10901
1.599526 102.9056 9.410278 1.74718 -0.8479897 -1.620233 2.688483 -27.63404 7.063116 -0 28.28699 -0 -3.855773 -8.930141 -2.596778 -7.582377 16.0089 -17.79708 -0 2.34475 -0 7.501903 -20.33507 26.61131 -6.973825 -1.293198 5.562767 3.312742 9.587763 -8.787675 0.367467 16.63648 11.31604 12.7542 -27.75955 7.229197 6.15159 -16.16333 9.818458 83.95814 30.90374 -20.89035 -0 0 9.935941 -14.7923 4.605728 13.69114 5.634558 -21.34582 -4.608503 -99.2943 33.72065 28.57155 0 0 -17.98146 -1.544955 3.640156 23.73565
